<svg xmlns="http://www.w3.org/2000/svg" xmlns:xlink="http://www.w3.org/1999/xlink" width="500" zoomAndPan="magnify" viewBox="0 0 375 374.999991" height="500" preserveAspectRatio="xMidYMid meet" version="1.0"><defs><g/><clipPath id="id1"><path d="M 64.421875 182.546875 L 310.421875 182.546875 L 310.421875 213.296875 L 64.421875 213.296875 Z M 64.421875 182.546875 " clip-rule="nonzero"/></clipPath></defs><rect x="-37.5" width="450" fill="#ffffff" y="-37.499999" height="449.999989" fill-opacity="1"/><rect x="-37.5" width="450" fill="#ffffff" y="-37.499999" height="449.999989" fill-opacity="1"/><rect x="-37.5" width="450" fill="#f4ece0" y="-37.499999" height="449.999989" fill-opacity="1"/><g fill="#000000" fill-opacity="1"><g transform="translate(118.421885, 239.999984)"><g><path d="M 35.40625 0.453125 L 8.84375 -88.796875 C 8.144531 -91.097656 7.394531 -92.773438 6.59375 -93.828125 C 5.800781 -94.878906 4.40625 -95.851562 2.40625 -96.75 L 0.59375 -97.5 L 0.59375 -99 L 40.34375 -99 L 40.34375 -97.5 L 37.203125 -96.296875 C 34.898438 -95.398438 33.347656 -94.300781 32.546875 -93 C 31.742188 -91.695312 31.695312 -89.894531 32.40625 -87.59375 L 48.75 -25.203125 L 66.453125 -77.546875 L 63 -88.203125 C 62.300781 -90.296875 61.648438 -91.894531 61.046875 -93 C 60.453125 -94.101562 59.453125 -95.003906 58.046875 -95.703125 L 54.75 -97.5 L 54.75 -99 L 92.40625 -99 L 92.40625 -97.5 L 87.75 -95.703125 C 85.75 -95.003906 84.625 -93.976562 84.375 -92.625 C 84.125 -91.269531 84.347656 -89.546875 85.046875 -87.453125 L 104.09375 -23.703125 L 122.09375 -86.25 C 122.800781 -88.644531 123.050781 -90.742188 122.84375 -92.546875 C 122.644531 -94.347656 121.394531 -95.648438 119.09375 -96.453125 L 115.953125 -97.5 L 115.953125 -99 L 136.796875 -99 L 136.796875 -97.5 L 132.90625 -96 C 130.90625 -95.300781 129.503906 -94.203125 128.703125 -92.703125 C 127.898438 -91.203125 127.195312 -89.351562 126.59375 -87.15625 L 101.703125 0.453125 L 91.34375 0.453125 L 68.84375 -70.046875 L 45.75 0.453125 Z M 35.40625 0.453125 "/></g></g></g><g clip-path="url(#id1)"><path fill="#f4ece0" d="M 64.4375 182.546875 L 310.402344 182.546875 L 310.402344 213.296875 L 64.4375 213.296875 L 64.4375 182.546875 " fill-opacity="1" fill-rule="nonzero"/></g><g fill="#000000" fill-opacity="1"><g transform="translate(109.014364, 203.326875)"><g><path d="M 3.90625 0 L 2.796875 0 L 0.109375 -8.609375 L 1.140625 -8.609375 L 3.359375 -1.375 L 5.671875 -8.609375 L 6.78125 -8.609375 L 9.09375 -1.375 L 11.3125 -8.609375 L 12.34375 -8.609375 L 9.65625 0 L 8.546875 0 L 6.234375 -7.234375 Z M 3.90625 0 "/></g></g></g><g fill="#000000" fill-opacity="1"><g transform="translate(130.174585, 203.326875)"><g><path d="M 8.5625 0 L 7.484375 0 L 6.4375 -2.5 L 2.171875 -2.5 L 1.125 0 L 0.03125 0 L 3.6875 -8.609375 L 4.90625 -8.609375 Z M 6.0625 -3.390625 L 4.296875 -7.59375 L 2.546875 -3.390625 Z M 6.0625 -3.390625 "/></g></g></g><g fill="#000000" fill-opacity="1"><g transform="translate(147.487976, 203.326875)"><g><path d="M 4.53125 -5.140625 L 8.390625 0 L 7.171875 0 L 3.8125 -4.484375 L 2.03125 -2.828125 L 2.03125 0 L 1.046875 0 L 1.046875 -8.609375 L 2.03125 -8.609375 L 2.03125 -4.125 L 6.8125 -8.609375 L 8.1875 -8.609375 Z M 4.53125 -5.140625 "/></g></g></g><g fill="#000000" fill-opacity="1"><g transform="translate(164.52846, 203.326875)"><g><path d="M 2.03125 -7.671875 L 2.03125 -4.78125 L 6.8125 -4.78125 L 6.8125 -3.828125 L 2.03125 -3.828125 L 2.03125 -0.9375 L 7.390625 -0.9375 L 7.390625 0 L 1.046875 0 L 1.046875 -8.609375 L 7.390625 -8.609375 L 7.390625 -7.671875 Z M 2.03125 -7.671875 "/></g></g></g><g fill="#000000" fill-opacity="1"><g transform="translate(181.140079, 203.326875)"><g/></g></g><g fill="#000000" fill-opacity="1"><g transform="translate(192.618268, 203.326875)"><g><path d="M 9.421875 -8.609375 L 9.421875 0 L 8.453125 0 L 8.453125 -7.125 L 5.265625 -3.03125 L 2.03125 -7.125 L 2.03125 0 L 1.046875 0 L 1.046875 -8.609375 L 2.1875 -8.609375 L 5.265625 -4.53125 L 8.296875 -8.609375 Z M 9.421875 -8.609375 "/></g></g></g><g fill="#000000" fill-opacity="1"><g transform="translate(211.803085, 203.326875)"><g><path d="M 2.03125 -7.671875 L 2.03125 -4.78125 L 6.8125 -4.78125 L 6.8125 -3.828125 L 2.03125 -3.828125 L 2.03125 -0.9375 L 7.390625 -0.9375 L 7.390625 0 L 1.046875 0 L 1.046875 -8.609375 L 7.390625 -8.609375 L 7.390625 -7.671875 Z M 2.03125 -7.671875 "/></g></g></g><g fill="#000000" fill-opacity="1"><g transform="translate(228.414698, 203.326875)"><g/></g></g><g fill="#000000" fill-opacity="1"><g transform="translate(239.892881, 203.326875)"><g><path d="M 8.265625 -8.609375 L 8.265625 -3.703125 C 8.265625 -2.554688 7.925781 -1.632812 7.25 -0.9375 C 6.570312 -0.238281 5.691406 0.109375 4.609375 0.109375 C 3.523438 0.109375 2.644531 -0.238281 1.96875 -0.9375 C 1.289062 -1.632812 0.953125 -2.554688 0.953125 -3.703125 L 0.953125 -8.609375 L 1.921875 -8.609375 L 1.921875 -3.671875 C 1.921875 -2.742188 2.195312 -2.023438 2.75 -1.515625 C 3.226562 -1.066406 3.847656 -0.84375 4.609375 -0.84375 C 5.359375 -0.84375 5.976562 -1.066406 6.46875 -1.515625 C 7.019531 -2.023438 7.296875 -2.742188 7.296875 -3.671875 L 7.296875 -8.609375 Z M 8.265625 -8.609375 "/></g></g></g><g fill="#000000" fill-opacity="1"><g transform="translate(257.817086, 203.326875)"><g><path d="M 2.03125 0 L 1.046875 0 L 1.046875 -8.609375 L 4.921875 -8.609375 C 5.835938 -8.609375 6.5625 -8.359375 7.09375 -7.859375 C 7.625 -7.347656 7.890625 -6.675781 7.890625 -5.84375 C 7.890625 -4.988281 7.625 -4.3125 7.09375 -3.8125 C 6.5625 -3.3125 5.835938 -3.0625 4.921875 -3.0625 L 2.03125 -3.0625 Z M 2.03125 -7.6875 L 2.03125 -3.984375 L 4.859375 -3.984375 C 5.535156 -3.984375 6.046875 -4.144531 6.390625 -4.46875 C 6.742188 -4.800781 6.921875 -5.253906 6.921875 -5.828125 C 6.921875 -6.398438 6.742188 -6.851562 6.390625 -7.1875 C 6.046875 -7.519531 5.535156 -7.6875 4.859375 -7.6875 Z M 2.03125 -7.6875 "/></g></g></g></svg>